PathFileType	4	(X/Y/Z)	OpenSim_Sub04_EMGStiffKnee_Accel.trc
DataRate	CameraRate	NumFrames	NumMarkers	Units	OrigDataRate	OrigDataStartFrame	OrigNumFrames
100	100	30	8	m	100	4139	8277
Frame#	Time	torso_imu_offset_imu	pelvis_imu_offset_imu	tibia_r_imu_offset_imu	femur_r_imu_offset_imu	tibia_l_imu_offset_imu	femur_l_imu_offset_imu	toes_r_imu_offset_imu	toes_l_imu_offset_imu
				X1	Y1	Z1	X2	Y2	Z2	X3	Y3	Z3	X4	Y4	Z4	X5	Y5	Z5	X6	Y6	Z6	X7	Y7	Z7	X8		Y8	Z8	

4139	41.38000000	-7.90891995	0.43297247	8.18803788	8.87291621	1.47565497	3.60946492	9.58903849	4.09875982	1.13697165	9.45844112	-2.86450428	-0.38202737	9.32175500	-3.05488376	0.37617691	9.23720625	-0.89683260	-1.01734777	6.59046654	-0.41576706	7.78210550	12.33873761	2.09625654	6.25662742
4140	41.39000000	-7.92132927	0.42377623	8.20143100	9.03162272	1.43067314	3.48253117	9.50731967	3.70525956	1.13368646	9.41722812	-2.90547781	-0.51387644	9.24919733	-3.34641111	0.15493898	9.14494249	-0.66435157	-1.10305432	6.80937263	-0.37644277	7.62465543	10.79734537	2.39578850	5.55002833
4141	41.40000000	-7.87705271	0.45642986	8.12909926	9.06334805	1.47147709	3.40350153	9.41140307	3.24184043	1.38812102	9.23875939	-3.02279736	-0.61333950	9.03092656	-3.34822603	0.07054942	8.97109016	-0.38384200	-1.02208944	6.27708193	-0.56241350	7.93900564	10.61314252	0.94381696	4.14193750
4142	41.41000000	-7.72568790	0.57044847	8.03755897	8.93189523	1.53220513	3.37234735	9.50177553	2.71816358	1.37948309	9.00043406	-3.24512526	-0.62105383	9.03948980	-3.03967676	0.50423810	8.93413986	-0.02077392	-0.94517456	6.41288829	-0.68448623	7.84908964	11.19359206	0.87880654	2.28045942
4143	41.42000000	-7.59417780	0.67971753	7.98055588	8.72570242	1.53644253	3.31991943	9.70503506	1.98589750	1.46989523	8.68328051	-3.58572498	-0.37174932	8.97932597	-2.28413669	1.31944467	8.78755238	0.48562994	-0.99077895	6.27010729	-0.78624858	7.98428144	12.77715775	1.66197389	1.38764656
4144	41.43000000	-7.50668088	0.73892955	7.95013940	8.57777834	1.54609524	3.33852216	9.98936660	1.31743528	1.74559135	8.42094492	-4.06200944	-0.07216063	8.80467705	-1.77894975	1.60086223	8.41531336	0.99732018	-1.10222789	6.11877705	-1.09741644	8.10358909	13.82942945	-0.20894283	-0.20564104
4145	41.44000000	-7.33905806	0.75689528	7.90792441	8.42301760	1.52593011	3.34386056	10.39506292	0.85185476	1.95999588	8.31225193	-4.56321415	0.15115960	8.60174081	-2.23955858	1.26241680	7.96763979	1.50719599	-1.12705763	6.75810239	-0.94199755	7.96121608	14.75604644	0.75707432	-1.78463441
4146	41.45000000	-7.24023263	0.76139520	7.94329173	8.21448750	1.48170592	3.29737847	10.97568360	0.07458305	2.55908839	8.33164697	-4.92332223	0.34894585	8.16797732	-3.29250143	1.18277856	7.46756246	1.91629426	-1.04580186	6.72602889	-0.87560026	8.24577223	16.13716229	-1.88839881	-5.35944821
4147	41.46000000	-7.20194756	0.71060992	7.98880118	8.00277691	1.49072632	3.33252230	11.59635804	-0.97721271	2.92258069	8.36818683	-5.32441444	0.47417263	7.84957341	-4.49652245	1.92113782	7.02819811	2.00471123	-0.95071318	6.84479192	-0.83243405	8.38326101	23.33208539	12.73538230	-2.58633149
4148	41.47000000	-7.12837239	0.64515413	7.85932080	7.76195462	1.68783353	3.73819033	12.25862311	-1.97726095	3.93664222	8.41901335	-5.79571628	0.30868314	8.10828692	-5.27098614	1.38669503	7.04549271	1.98307057	-0.81622517	7.52817856	-0.21058990	8.81850850	41.90827541	4.65535700	4.79231658
4149	41.48000000	-7.54281074	0.62953530	8.12238889	7.69293435	1.89220517	4.44264913	12.94729977	-2.78801347	3.99544170	8.47583903	-6.15425632	0.14544007	9.06983578	-8.21459449	-4.27754206	8.52200879	2.31139685	-1.08612350	7.02064522	-0.65134647	9.91882576	11.69645397	-12.56873160	12.03312933
4150	41.49000000	-8.73120777	0.52580005	8.48188291	7.90515310	1.75148203	4.71550615	13.98252055	-2.83452215	4.01716313	8.62847027	-6.29747718	0.23316646	12.12887332	-11.96883767	-3.97107144	11.37711801	2.99416802	-2.19055219	6.35014706	-1.70538986	11.08273835	-1.44888911	1.08001204	18.55091838
4151	41.50000000	-9.40059881	0.12501912	8.62789249	8.36449386	1.36418984	4.89553439	15.35950976	-2.30079829	4.94617030	8.80946228	-6.46982109	0.46826345	15.45682169	-11.27640909	3.16062331	13.79878506	2.76882695	-2.72637324	6.04801265	-1.97153460	11.50781334	11.82108462	2.60237319	13.25173739
4152	41.51000000	-9.03325413	-0.34426740	8.80490638	8.86026734	1.00080522	5.37403378	16.33466939	-2.02428745	4.32173994	8.91987911	-6.46810059	0.96085486	12.80830941	-7.44406085	1.51300471	14.36629727	0.53716179	-1.97507872	7.07119933	-2.55883898	11.47946529	2.62723498	2.83251194	10.41456666
4153	41.52000000	-8.62305119	-0.59239828	8.91177224	9.22809264	0.49255291	5.83926200	16.71741617	-1.51982879	3.48917832	9.14194914	-5.96841906	1.70438888	8.64866102	-3.96216737	-0.38351465	13.10816136	-2.85041437	-1.61506138	7.36397465	-3.42624296	12.02516687	6.01706794	3.23939017	12.24044373
4154	41.53000000	-8.27750900	-0.88672486	8.77601630	9.60959771	-0.12943060	5.99711397	16.50579218	0.02703386	2.13424215	9.60183933	-5.45290456	2.33644914	7.99041726	-4.73768754	2.75981578	11.19549279	-5.61864831	-2.55498025	9.20782755	-3.69785967	12.57304374	5.60110737	1.10240488	10.91771942
4155	41.54000000	-7.92027168	-1.16687616	8.55119708	9.97163176	-0.58149587	5.75936025	15.72937999	1.87916009	-0.25811518	10.00937042	-5.02506134	2.45408532	8.37719146	-6.69520787	1.70007554	10.02705060	-6.12034491	-3.62249412	13.18281352	-4.98198109	13.51506306	6.53993934	0.81974319	11.25811960
4156	41.55000000	-7.83949429	-1.34625861	8.51096176	10.12542800	-0.84471528	5.49289055	14.35757285	3.56170839	-2.07068306	10.44327697	-4.25680081	2.37158495	9.20926879	-5.63468825	-1.03098357	9.84199855	-4.61179043	-3.52946504	11.54497874	-5.15468534	13.93207052	5.14410089	2.03879537	11.23240769
4157	41.56000000	-8.08248465	-1.49972238	8.51125526	10.11348248	-0.89200450	5.30338969	12.76606660	5.55691096	-2.54104509	11.14093893	-3.19492502	2.40352787	9.41256002	-4.76087788	-1.29532177	9.74591631	-2.83391273	-3.02447199	10.78229065	-4.69803669	13.17975223	5.88452097	3.35528810	10.66433352
4158	41.57000000	-8.37831937	-1.59929986	8.65606421	9.96343382	-0.96714422	5.06470732	11.29438575	7.13607414	-2.28555997	11.99221643	-1.84525072	2.24064693	9.09877725	-4.01713660	-2.08166124	9.65202245	-1.28023678	-3.26203727	12.07614917	-7.32486729	11.05065457	4.37460325	3.67967924	11.50429498
4159	41.58000000	-8.31411437	-1.70464942	8.84649029	9.79957099	-1.06621263	4.87888442	9.62981214	8.60776912	-1.66357752	12.74604397	-0.52437472	1.53900192	9.34260096	-2.51596895	-3.25967826	9.72365015	-0.06122827	-3.78131169	8.97055041	-6.17226777	10.23335099	5.61002755	4.03894644	10.43657067
4160	41.59000000	-8.08360339	-1.77408270	9.11810451	9.98088297	-0.89560841	4.92393887	7.74161733	10.13604790	-2.84270108	13.46595618	-0.12038590	0.73707251	10.12745691	-1.90082008	-3.33107798	9.35238982	0.82038835	-4.04183649	11.78781606	-5.23254711	19.26579397	6.94478707	4.44096626	9.40638208
4161	41.60000000	-8.12675956	-1.85920664	9.38839242	10.43098962	-0.58241500	5.14583447	6.83663605	9.94251329	-1.56035780	14.25047379	-0.16632356	-0.61136909	10.72178254	-2.66832974	-2.80210609	8.51457568	1.57220739	-4.12652962	1.60380272	-9.44927568	21.88055251	5.30343442	3.68475776	10.67189564
4162	41.61000000	-8.44752975	-1.87755763	9.50666118	10.84585430	-0.34382596	5.22315875	7.14490433	8.07102706	2.62734990	13.80814014	-0.08681812	-2.44191664	10.54738467	-3.35803136	-1.95507342	8.01755144	1.92705324	-4.12550340	-8.25073436	-10.47808980	15.78878198	5.50525139	2.97808919	10.71674487
4163	41.62000000	-8.55167018	-1.73618648	9.54995348	11.01181181	0.00616321	4.83476278	7.76563498	6.90984935	3.20894181	12.11144000	-0.15602057	-2.49471261	10.06218128	-3.48164933	-1.22135949	8.16067694	1.83885742	-4.06978826	0.13432445	-6.73466347	18.12082706	5.30828340	2.78434184	10.78355927
4164	41.63000000	-8.05630504	-1.44938997	9.39570278	10.87492884	0.36225300	4.57291424	7.54695598	7.01113004	1.25360122	10.94227447	-0.90008570	-0.71315867	9.58207622	-3.72214507	-0.79133849	8.61867393	1.35091832	-3.96052043	-1.14648044	-4.86017667	18.70613177	5.38500463	2.38158244	10.70859132
4165	41.64000000	-7.56598604	-1.09481664	9.17438466	10.54281796	0.66562393	4.63627738	6.13252997	6.39583387	0.70795880	10.82110362	-2.30636611	1.07918566	9.22694622	-3.86189390	-0.76121281	9.23552195	0.72631142	-3.71446903	-4.78916221	-4.57071947	15.86270786	5.13840083	2.21189242	10.88833472
4166	41.65000000	-7.52305094	-0.81283921	8.86590897	10.15507083	0.87673041	4.53658937	4.80635725	5.45585723	2.06045758	10.92817230	-3.76801961	2.17446077	9.51504104	-3.97320971	-0.53865565	9.88473277	0.18147163	-3.24524022	-3.14752335	-2.89810245	15.22862678	5.07226767	2.35263828	10.98469655
4167	41.66000000	-7.51051583	-0.54377752	8.55021598	9.65554947	0.89171380	4.31114301	4.15566403	5.92986497	1.75872749	10.85069156	-4.45484320	2.67095939	9.75093199	-3.86912425	-0.47285296	10.23161195	-0.09315833	-2.73099799	-1.29148337	-2.29462161	14.86425688	5.31091612	2.31611985	10.78657545
4168	41.67000000	-7.34101773	-0.33040632	8.35218788	8.97527416	0.86982890	4.18798148	3.82210227	7.63169040	0.21059196	10.52324273	-4.23161948	2.84664817	9.61792301	-3.28841427	-0.44756525	10.07119091	-0.13157919	-2.36718784	-0.42212367	-1.88976275	13.98100743	5.35594684	2.29866707	10.61400539
